<?xml version="1.0"?>
<svg version="1.1" xmlns="http://www.w3.org/2000/svg" width="450px" height="200px" style="border: dashed 2px #aaa"><path fill="#9b51e0" d="M148.6650390625,124.4384765625q0-0.146484375,0.09765625-1.03759765625t0.25634765625-2.1728515625t0.35400390625-2.7587890625t0.341796875-2.79541015625t0.25634765625-2.3193359375t0.10986328125-1.3427734375q-0.1953125-0.09765625-0.47607421875-0.28076171875t-0.28076171875-0.42724609375q0-0.341796875,0.32958984375-0.54931640625t0.57373046875-0.30517578125q0.09765625-1.2451171875,0.244140625-3.466796875t0.45166015625-4.79736328125t0.8544921875-5.224609375t1.45263671875-4.8095703125t2.1728515625-3.52783203125t3.125-1.3671875t3.076171875,1.171875t1.98974609375,3.0517578125t1.171875,4.1748046875t0.6103515625,4.5654296875t0.25634765625,4.248046875t0.09765625,3.173828125q0.048828125,0.7568359375,0.3662109375,1.01318359375t0.69580078125,0.35400390625t0.68359375,0.2197265625t0.30517578125,0.6103515625q0,0.5615234375-0.68359375,0.78125t-1.07421875,0.2685546875q0.244140625,3.0517578125,0.67138671875,6.005859375t1.13525390625,5.95703125q0.09765625,0.5615234375,0.2685546875,1.13525390625t0.1708984375,1.11083984375q0,0.390625-0.2685546875,0.64697265625t-0.69580078125,0.40283203125t-0.8544921875,0.1953125t-0.72021484375,0.048828125q-1.0986328125,0-1.85546875-0.4150390625t-1.0009765625-1.5869140625q-0.6591796875-3.1494140625-1.2939453125-6.6162109375q-0.537109375-3.0029296875-0.537109375-5.8349609375q0-0.439453125,0.0244140625-0.87890625q-2.05078125,0-4.1259765625,0.09765625t-3.9794921875,0.732421875q-0.048828125,0.6591796875-0.244140625,2.490234375t-0.439453125,3.9306640625t-0.50048828125,4.01611328125t-0.30517578125,2.72216796875q-0.048828125,0.341796875-0.50048828125,0.64697265625t-0.9765625,0.32958984375t-0.927734375-0.32958984375t-0.40283203125-1.25732421875z M153.23046875,109.6435546875q1.904296875-0.439453125,3.82080078125-0.5126953125t3.86962890625-0.1708984375q-0.09765625-0.6103515625-0.048828125-1.25732421875t0.048828125-1.30615234375q0-1.4404296875-0.0732421875-3.3447265625t-0.2197265625-3.857421875t-0.37841796875-3.84521484375t-0.52490234375-3.369140625t-0.62255859375-2.35595703125t-0.72021484375-0.87890625q-0.7568359375,0.048828125-1.42822265625,1.30615234375t-1.220703125,3.1982421875t-1.0009765625,4.345703125t-0.7568359375,4.69970703125t-0.50048828125,4.2724609375t-0.244140625,3.076171875z M172.26538085938,106.8115234375q0-0.1953125,0.23193359375-0.35400390625t0.52490234375-0.23193359375t0.59814453125-0.09765625t0.45166015625-0.0244140625q1.0986328125,0,1.8798828125,0.9765625t1.35498046875,2.50244140625t0.9765625,3.369140625t0.76904296875,3.67431640625t0.72021484375,3.35693359375t0.79345703125,2.35595703125q0.7568359375-1.4892578125,1.37939453125-3.5888671875t1.1474609375-4.345703125t0.927734375-4.43115234375t0.64697265625-3.82080078125q0.09765625-0.439453125,0.6103515625-0.54931640625t0.8544921875-0.10986328125q0.5615234375,0,0.9765625,0.15869140625t0.4150390625,0.69580078125q0,0.9033203125-0.2197265625,2.45361328125t-0.59814453125,3.47900390625t-0.87890625,3.955078125t-1.07421875,3.84521484375t-1.1962890625,3.22265625t-1.23291015625,1.98974609375q-0.29296875,0.341796875-0.91552734375,0.47607421875t-1.03759765625,0.13427734375q-1.4404296875,0-2.392578125-0.7568359375l0,0.048828125q-1.4892578125-1.3916015625-2.197265625-3.3935546875t-1.025390625-4.1748046875t-0.57373046875-4.3212890625t-0.86669921875-3.90625q-0.09765625-0.1953125-0.244140625-0.57373046875t-0.341796875-0.7568359375t-0.32958984375-0.72021484375t-0.13427734375-0.537109375z M191.52001953125,116.89453125q0-1.708984375,0.37841796875-4.0283203125t1.28173828125-4.39453125t2.38037109375-3.52783203125t3.72314453125-1.45263671875q2.099609375,0,3.1494140625,1.20849609375t1.0498046875,3.25927734375q0,1.3427734375-0.50048828125,2.94189453125t-1.42822265625,3.02734375t-2.197265625,2.38037109375t-2.83203125,0.9521484375l-0.634765625-0.048828125q0,0.6591796875,0.1953125,1.77001953125t0.57373046875,2.20947265625t0.9765625,1.9287109375t1.45263671875,0.830078125q1.2451171875,0,2.392578125-1.0009765625t2.1728515625-2.2216796875t1.904296875-2.2216796875t1.611328125-1.0009765625q0.390625,0,0.8056640625,0.1220703125t0.4638671875,0.68359375q0,0.341796875-0.18310546875,0.5615234375t-0.32958984375,0.48828125q-0.7568359375,1.2939453125-1.64794921875,2.4658203125t-2.01416015625,2.1240234375t-2.45361328125,1.50146484375t-2.94189453125,0.54931640625q-2.099609375,0-3.4912109375-0.74462890625t-2.24609375-2.001953125t-1.23291015625-2.9052734375t-0.37841796875-3.45458984375z M195.89013671875,115.0390625l0.68359375,0.6103515625q0.48828125,0.439453125,0.9765625,0.1953125t0.87890625-0.89111328125t0.72021484375-1.59912109375t0.5859375-1.953125t0.37841796875-1.953125t0.1220703125-1.5869140625l0-0.830078125t-0.0732421875-0.87890625t-0.25634765625-0.69580078125t-0.57373046875-0.35400390625q-0.1220703125-0.0244140625-0.2197265625-0.0244140625q-0.830078125,0-1.416015625,1.0498046875q-0.634765625,1.171875-1.025390625,2.84423828125t-0.5615234375,3.43017578125t-0.2197265625,2.63671875z M221.2890625,124.4384765625q0-0.146484375,0.09765625-1.03759765625t0.25634765625-2.1728515625t0.35400390625-2.7587890625t0.341796875-2.79541015625t0.25634765625-2.3193359375t0.10986328125-1.3427734375q-0.1953125-0.09765625-0.47607421875-0.28076171875t-0.28076171875-0.42724609375q0-0.341796875,0.32958984375-0.54931640625t0.57373046875-0.30517578125q0.09765625-1.2451171875,0.244140625-3.466796875t0.45166015625-4.79736328125t0.8544921875-5.224609375t1.45263671875-4.8095703125t2.1728515625-3.52783203125t3.125-1.3671875t3.076171875,1.171875t1.98974609375,3.0517578125t1.171875,4.1748046875t0.6103515625,4.5654296875t0.25634765625,4.248046875t0.09765625,3.173828125q0.048828125,0.7568359375,0.3662109375,1.01318359375t0.69580078125,0.35400390625t0.68359375,0.2197265625t0.30517578125,0.6103515625q0,0.5615234375-0.68359375,0.78125t-1.07421875,0.2685546875q0.244140625,3.0517578125,0.67138671875,6.005859375t1.13525390625,5.95703125q0.09765625,0.5615234375,0.2685546875,1.13525390625t0.1708984375,1.11083984375q0,0.390625-0.2685546875,0.64697265625t-0.69580078125,0.40283203125t-0.8544921875,0.1953125t-0.72021484375,0.048828125q-1.0986328125,0-1.85546875-0.4150390625t-1.0009765625-1.5869140625q-0.6591796875-3.1494140625-1.2939453125-6.6162109375q-0.537109375-3.0029296875-0.537109375-5.8349609375q0-0.439453125,0.0244140625-0.87890625q-2.05078125,0-4.1259765625,0.09765625t-3.9794921875,0.732421875q-0.048828125,0.6591796875-0.244140625,2.490234375t-0.439453125,3.9306640625t-0.50048828125,4.01611328125t-0.30517578125,2.72216796875q-0.048828125,0.341796875-0.50048828125,0.64697265625t-0.9765625,0.32958984375t-0.927734375-0.32958984375t-0.40283203125-1.25732421875z M225.8544921875,109.6435546875q1.904296875-0.439453125,3.82080078125-0.5126953125t3.86962890625-0.1708984375q-0.09765625-0.6103515625-0.048828125-1.25732421875t0.048828125-1.30615234375q0-1.4404296875-0.0732421875-3.3447265625t-0.2197265625-3.857421875t-0.37841796875-3.84521484375t-0.52490234375-3.369140625t-0.62255859375-2.35595703125t-0.72021484375-0.87890625q-0.7568359375,0.048828125-1.42822265625,1.30615234375t-1.220703125,3.1982421875t-1.0009765625,4.345703125t-0.7568359375,4.69970703125t-0.50048828125,4.2724609375t-0.244140625,3.076171875z M245.89038085938,109.0576171875q0-1.0009765625,0.35400390625-1.6845703125t1.50146484375-0.68359375q0.439453125,0,1.0986328125,0.13427734375t0.7568359375,0.67138671875q0.244140625,1.4404296875,0.2685546875,3.125t0.1708984375,3.173828125q0.5615234375-1.0986328125,1.4404296875-2.3681640625t2.001953125-2.34375t2.44140625-1.7822265625t2.685546875-0.7080078125q0.09765625,0,0.3662109375,0.0732421875t0.50048828125,0.20751953125t0.28076171875,0.30517578125t-0.2685546875,0.3173828125q-0.09765625,0.29296875-0.4150390625,0.35400390625t-0.5615234375,0.06103515625q-0.146484375,0-0.4638671875-0.1220703125q-1.806640625,0.9521484375-3.076171875,2.587890625t-2.0751953125,3.62548828125t-1.171875,4.19921875t-0.3662109375,4.30908203125q0,1.0498046875-0.47607421875,1.26953125t-1.52587890625,0.2197265625q-0.5615234375,0-1.18408203125-0.1220703125t-0.86669921875-0.78125q-0.439453125-1.3916015625-0.72021484375-3.1982421875t-0.42724609375-3.72314453125t-0.20751953125-3.77197265625t-0.06103515625-3.3447265625z M263.24072265625,115.8935546875q0-1.66015625,0.45166015625-3.1982421875t1.35498046875-2.74658203125t2.25830078125-1.9287109375t3.13720703125-0.72021484375q1.0986328125,0,2.42919921875,0.32958984375t2.50244140625,0.9765625t1.953125,1.64794921875t0.78125,2.294921875q0,0.6103515625-0.20751953125,0.927734375t-0.84228515625,0.3173828125l-0.2685546875-0.048828125q0.7080078125,1.904296875,1.220703125,3.90625t1.0009765625,4.00390625q0.1953125,0.390625,0.29296875,0.69580078125t0.09765625,0.59814453125q0,0.390625-0.2197265625,0.64697265625t-0.57373046875,0.37841796875t-0.732421875,0.1708984375t-0.67138671875,0.048828125q-1.0498046875,0-1.57470703125-0.3662109375t-0.7568359375-1.0009765625t-0.28076171875-1.42822265625t-0.1953125-1.59912109375q-0.29296875,0.9521484375-0.76904296875,1.85546875t-1.123046875,1.62353515625t-1.52587890625,1.1474609375t-1.9775390625,0.42724609375q-1.611328125,0-2.7099609375-0.927734375t-1.77001953125-2.28271484375t-0.9765625-2.89306640625t-0.30517578125-2.8564453125z M266.70751953125,115.5517578125q0,0.9033203125,0.1220703125,1.904296875t0.40283203125,1.9775390625t0.72021484375,1.84326171875t1.0986328125,1.52587890625q1.1962890625-1.2939453125,1.77001953125-3.1494140625t1.025390625-3.57666015625t1.025390625-2.9541015625t1.77001953125-1.23291015625q0.7568359375,0,1.26953125,0.2685546875q-0.244140625-0.6103515625-0.8056640625-1.18408203125t-1.25732421875-1.0498046875t-1.4404296875-0.78125t-1.40380859375-0.30517578125q-0.1953125,0-0.45166015625,0.06103515625t-0.40283203125,0.01220703125q-1.0009765625,0.29296875-1.64794921875,1.01318359375t-1.0498046875,1.69677734375t-0.57373046875,2.001953125t-0.1708984375,1.9287109375z M284.39965820312,125.8056640625l0.5126953125-0.6103515625q-0.09765625-4.1015625-0.2197265625-8.1787109375t-0.1220703125-8.10546875q0-5.0048828125,0.59814453125-9.68017578125t1.18408203125-9.58251953125q0.048828125-0.29296875,0.28076171875-0.47607421875t0.57373046875-0.30517578125t0.69580078125-0.1708984375t0.64697265625-0.048828125q0.390625,0,0.9765625,0.146484375t1.171875,0.8544921875q0,0.244140625,0.03662109375,0.42724609375t0.03662109375,0.42724609375q0,1.85546875-0.50048828125,3.9794921875t-0.67138671875,4.0771484375q-0.1953125,2.392578125-0.2685546875,4.736328125t-0.0732421875,4.7607421875l0.048828125,2.1484375q0.48828125-0.6103515625,1.3916015625-1.5625t1.953125-1.84326171875t2.099609375-1.52587890625t1.904296875-0.634765625q1.2939453125,0,1.79443359375,0.732421875t0.50048828125,1.9287109375q0,1.0986328125-0.47607421875,2.294921875t-1.2451171875,2.33154296875t-1.74560546875,2.03857421875t-1.9287109375,1.3427734375q1.2939453125,1.611328125,2.64892578125,3.076171875t2.96630859375,2.7587890625l0,0.5615234375q-0.048828125,0.244140625-0.30517578125,0.3662109375t-0.5615234375,0.1953125t-0.59814453125,0.10986328125t-0.48828125,0.03662109375q-1.1962890625,0-2.30712890625-0.7080078125t-2.0751953125-1.7333984375t-1.81884765625-2.1728515625t-1.5625-2.001953125q0.146484375,2.8076171875,0.32958984375,5.60302734375t0.18310546875,5.60302734375q0,0.341796875-0.30517578125,0.57373046875t-0.7080078125,0.35400390625t-0.81787109375,0.1708984375t-0.68359375,0.048828125q-1.4404296875,0-2.03857421875-0.52490234375t-1.01318359375-1.81884765625z M289.40454101562,114.306640625q0.6103515625,0,1.45263671875-0.52490234375t1.74560546875-1.30615234375t1.6845703125-1.64794921875t1.25732421875-1.64794921875t0.47607421875-1.25732421875t-0.6591796875-0.42724609375q-0.244140625,0-1.0009765625,0.7080078125t-1.6845703125,1.7333984375t-1.85546875,2.2216796875t-1.416015625,2.1484375z"/></svg>
